<svg width="180" height="65" viewBox="0 0 180 65" fill="none" xmlns="http://www.w3.org/2000/svg">
<path d="M54.9186 26.4556V26.4241C54.9186 23.2539 57.3907 20.892 60.5609 20.892C62.8966 20.892 64.4712 22.0309 65.3687 23.6528L62.44 25.3638C62.0463 24.608 61.4847 24.0727 60.5137 24.0727C59.317 24.0727 58.5297 25.1172 58.5297 26.3926V26.4241C58.5297 27.8045 59.3485 28.7755 60.5137 28.7755C61.5162 28.7755 62.0778 28.2296 62.5134 27.4423L65.4422 29.0957C64.5499 30.6703 63.0593 31.9614 60.4245 31.9614C57.4799 31.9614 54.9186 29.7465 54.9186 26.4556Z" fill="#191716"/>
<path d="M65.6259 27.6208V27.5893C65.6259 25.2537 67.5679 23.2539 70.2972 23.2539C73.0108 23.2539 74.9371 25.2274 74.9371 27.5578V27.5893C74.9371 29.925 72.9951 31.9247 70.2657 31.9247C67.5469 31.93 65.6259 29.9565 65.6259 27.6208ZM71.6304 27.6208V27.5893C71.6304 26.7705 71.0216 26.1197 70.2657 26.1197C69.4942 26.1197 68.9326 26.7705 68.9326 27.5578V27.5893C68.9326 28.4081 69.5414 29.059 70.2972 29.059C71.0688 29.0642 71.6304 28.4134 71.6304 27.6208Z" fill="#191716"/>
<path d="M75.7086 23.4534H79.1518V24.6081C79.6819 23.9257 80.5164 23.2592 81.6816 23.2592C83.4242 23.2592 84.5159 24.4139 84.5159 26.2771V31.7358H81.0728V27.3846C81.0728 26.6708 80.6477 26.2614 80.1333 26.2614C79.6189 26.2614 79.1465 26.6708 79.1465 27.3846V31.7358H75.7034V23.4534H75.7086Z" fill="#191716"/>
<path d="M86.122 26.1036H85.151V23.4478H86.122C86.1378 22.566 86.3477 21.8575 86.8673 21.3378C87.4289 20.7762 88.1585 20.5505 89.2922 20.5505C90.3105 20.5505 90.9298 20.6398 91.4022 20.7762V22.9282C91.0663 22.8547 90.7356 22.8075 90.2947 22.8075C89.7646 22.8075 89.4917 23.0174 89.4917 23.4741V23.537H91.4022V26.0984H89.5652V31.725H86.122V26.1036Z" fill="#191716"/>
<path d="M91.5387 27.6208V27.5893C91.5387 25.2537 93.4807 23.2539 96.21 23.2539C98.9236 23.2539 100.85 25.2274 100.85 27.5578V27.5893C100.85 29.925 98.9078 31.9247 96.1785 31.9247C93.4649 31.93 91.5387 29.9565 91.5387 27.6208ZM97.5432 27.6208V27.5893C97.5432 26.7705 96.9343 26.1197 96.1785 26.1197C95.4069 26.1197 94.8453 26.7705 94.8453 27.5578V27.5893C94.8453 28.4081 95.4542 29.059 96.21 29.059C96.9816 29.0642 97.5432 28.4134 97.5432 27.6208Z" fill="#191716"/>
<path d="M101.621 23.4532H105.064V25.1222C105.537 23.999 106.293 23.2747 107.657 23.3324V26.9855H107.295C105.841 26.9855 105.064 27.7886 105.064 29.6256V31.7356H101.621V23.4532Z" fill="#191716"/>
<path d="M108.245 23.4534H111.688V24.5608C112.218 23.8785 113.053 23.2592 114.192 23.2592C115.315 23.2592 116.176 23.742 116.633 24.6238C117.331 23.8365 118.165 23.2592 119.435 23.2592C121.209 23.2592 122.301 24.4139 122.301 26.2771V31.7358H118.858V27.3531C118.858 26.6551 118.449 26.2614 117.95 26.2614C117.451 26.2614 116.995 26.6551 116.995 27.3531V31.7358H113.552V27.3531C113.552 26.6551 113.142 26.2614 112.644 26.2614C112.145 26.2614 111.688 26.6551 111.688 27.3531V31.7358H108.245V23.4534Z" fill="#191716"/>
<path d="M123.241 20.6609H126.805V22.8601H123.241V20.6609ZM123.304 23.4532H126.747V31.7304H123.304V23.4532Z" fill="#191716"/>
<path d="M128.442 28.9539V26.1038H127.471V23.448H128.442V21.3695H131.885V23.448H133.796V26.1038H131.885V28.198C131.885 28.8174 132.174 29.0483 132.72 29.0483C133.04 29.0483 133.402 28.9591 133.764 28.7912V31.447C133.218 31.7357 132.4 31.9194 131.565 31.9194C129.534 31.9141 128.442 30.9746 128.442 28.9539Z" fill="#191716"/>
<path d="M140.425 23.4532H143.926L141.06 31.1583C140.257 33.326 139.375 34.2078 137.465 34.2078C136.268 34.2078 135.192 33.8614 134.263 33.3418L135.266 30.9904C135.885 31.3368 136.462 31.5362 136.782 31.5362C136.982 31.5362 137.16 31.5047 137.344 31.4155L134.1 23.4532H137.664L139.102 27.8202L140.425 23.4532Z" fill="#191716"/>
<path d="M143.033 28.2454H146.55V31.7305H143.033V28.2454Z" fill="#191716"/>
<path d="M147.537 21.1174H152.313C155.132 21.1174 157.058 22.3771 157.058 24.8912V24.9227C157.058 27.4841 155.1 28.8487 152.234 28.8487H151.08V31.7303H147.532V21.1174H147.537ZM152.04 26.3189C152.948 26.3189 153.557 25.9095 153.557 25.1537V25.1222C153.557 24.3506 152.996 23.957 152.056 23.957H151.085V26.3241H152.04V26.3189Z" fill="#191716"/>
<path d="M157.814 21.1174H163C164.879 21.1174 166.075 21.5898 166.821 22.3299C167.456 22.965 167.792 23.7575 167.792 24.8492V24.8807C167.792 26.4291 166.989 27.5051 165.697 28.1244L168.169 31.7355H164.123L162.123 28.7018H161.367V31.7355H157.819V21.1174H157.814ZM162.895 26.1667C163.745 26.1667 164.259 25.7888 164.259 25.1379V25.1064C164.259 24.4241 163.729 24.0882 162.91 24.0882H161.362V26.1667H162.895Z" fill="#191716"/>
<path d="M168.416 26.4556V26.4241C168.416 23.3484 170.946 20.892 174.221 20.892C177.496 20.892 180 23.3169 180 26.3978V26.4293C180 29.5051 177.47 31.9614 174.195 31.9614C170.915 31.9614 168.416 29.5313 168.416 26.4556ZM176.42 26.4556V26.4241C176.42 25.1644 175.554 24.0307 174.19 24.0307C172.841 24.0307 171.99 25.1539 171.99 26.3978V26.4293C171.99 27.689 172.857 28.8227 174.221 28.8227C175.57 28.8175 176.42 27.6995 176.42 26.4556Z" fill="#191716"/>
<path d="M57.1598 36.2496H57.7004L60.0203 41.3776H59.4009L58.8026 40.0339H56.0313L55.4277 41.3776H54.8398L57.1598 36.2496ZM58.5769 39.5091L57.4222 36.9162L56.257 39.5091H58.5769Z" fill="#191716"/>
<path d="M61.0228 36.2863H61.6002V40.8474H64.466V41.3775H61.0228V36.2863Z" fill="#191716"/>
<path d="M64.4082 36.2864H65.0328L66.4867 40.5273L67.8829 36.2706H68.3552L69.7514 40.5273L71.2053 36.2864H71.8089L69.9876 41.4143H69.4995L68.1033 37.2836L66.6967 41.4143H66.2138L64.4082 36.2864Z" fill="#191716"/>
<path d="M74.0868 36.2496H74.6275L76.9474 41.3776H76.328L75.7297 40.0339H72.9584L72.3548 41.3776H71.7669L74.0868 36.2496ZM75.504 39.5091L74.3493 36.9162L73.1841 39.5091H75.504Z" fill="#191716"/>
<path d="M78.7424 39.3674L76.6271 36.2916H77.3252L79.0415 38.8372L80.7736 36.2916H81.4454L79.3302 39.3621V41.3829H78.7476V39.3674H78.7424Z" fill="#191716"/>
<path d="M81.7709 40.6374L82.1278 40.2175C82.6579 40.7004 83.167 40.9366 83.8756 40.9366C84.5579 40.9366 85.0093 40.5744 85.0093 40.0706V40.0548C85.0093 39.5824 84.7521 39.3147 83.6866 39.089C82.5162 38.8319 81.9756 38.454 81.9756 37.6194V37.6037C81.9756 36.8006 82.6789 36.2128 83.6499 36.2128C84.3899 36.2128 84.9253 36.4227 85.4397 36.8374L85.1038 37.2835C84.6314 36.9003 84.159 36.7324 83.6341 36.7324C82.9728 36.7324 82.5477 37.0945 82.5477 37.5564V37.5722C82.5477 38.0551 82.8101 38.3227 83.9281 38.5642C85.0618 38.8109 85.5867 39.2255 85.5867 40.0076V40.0233C85.5867 40.8946 84.8571 41.4667 83.8493 41.4667C83.041 41.4562 82.3797 41.1833 81.7709 40.6374Z" fill="#191716"/>
<path d="M88.9458 36.2863H89.5232V40.8474H92.3889V41.3775H88.9458V36.2863Z" fill="#191716"/>
<path d="M93.4492 36.2863H97.1338V36.8111H94.0265V38.5484H96.8083V39.0733H94.0265V40.8579H97.1705V41.3827H93.4544V36.2863H93.4492Z" fill="#191716"/>
<path d="M100.209 36.2496H100.75L103.07 41.3776H102.451L101.852 40.0339H99.081L98.4774 41.3776H97.8895L100.209 36.2496ZM101.627 39.5091L100.472 36.9162L99.3067 39.5091H101.627Z" fill="#191716"/>
<path d="M104.073 36.2863H106.261C106.886 36.2863 107.39 36.4752 107.71 36.7954C107.957 37.0421 108.104 37.399 108.104 37.7979V37.8136C108.104 38.6587 107.521 39.152 106.723 39.299L108.287 41.3827H107.584L106.109 39.404H104.655V41.3827H104.078V36.2863H104.073ZM106.209 38.8844C106.975 38.8844 107.521 38.4907 107.521 37.8346V37.8189C107.521 37.1943 107.038 36.8164 106.219 36.8164H104.65V38.8844H106.209Z" fill="#191716"/>
<path d="M109.332 36.2863H109.872L113.079 40.3697V36.2863H113.641V41.3775H113.184L109.893 37.1995V41.3775H109.332V36.2863Z" fill="#191716"/>
<path d="M115.132 36.2863H115.709V41.3775H115.132V36.2863Z" fill="#191716"/>
<path d="M117.199 36.2863H117.74L120.947 40.3697V36.2863H121.509V41.3775H121.052L117.761 37.1995V41.3775H117.199V36.2863Z" fill="#191716"/>
<path d="M122.721 38.8475V38.8317C122.721 37.4356 123.745 36.1969 125.277 36.1969C126.138 36.1969 126.668 36.4436 127.177 36.874L126.805 37.3096C126.411 36.9685 125.975 36.727 125.256 36.727C124.128 36.727 123.32 37.6823 123.32 38.816V38.8317C123.32 40.0494 124.096 40.947 125.335 40.947C125.918 40.947 126.458 40.7213 126.805 40.4378V39.1729H125.256V38.6585H127.361V40.6898C126.889 41.1097 126.175 41.4666 125.314 41.4666C123.713 41.4666 122.721 40.3066 122.721 38.8475Z" fill="#191716"/>
<path fill-rule="evenodd" clip-rule="evenodd" d="M25.7432 0.12769C27.8461 -0.0286911 30.2222 -0.0779715 32.0187 0.192735L32.0199 0.192914L32.0211 0.193096C36.2013 0.839077 40.1773 2.21294 43.3172 5.35836C47.0141 9.06066 49.1626 13.5464 49.5422 18.8166C49.5432 18.8275 49.547 18.8513 49.5604 18.9029C49.5673 18.9293 49.6002 19.0465 49.6158 19.1113L49.6333 19.1844V21.7704L49.6286 21.8088C49.6001 22.042 49.5727 22.2807 49.545 22.522C49.4883 23.0153 49.4304 23.5197 49.3591 24.0115L49.359 24.012C48.6774 28.687 46.9226 32.9354 44.3598 36.8544C42.9747 38.9793 41.6037 41.0987 40.2807 43.2531L40.2792 43.2555L40.2777 43.2579C40.0954 43.5489 40.0218 43.9934 39.9676 44.5406C39.6636 47.704 39.8273 50.8749 40.1201 54.1113L40.1709 54.6726L39.6197 54.7899C33.0965 56.1782 27.3208 59.1625 22.0452 63.3125L20.865 64.2408L21.0205 62.7473C21.0329 62.629 21.1779 61.2263 21.2134 59.5071C21.2495 57.7651 21.17 55.7884 20.7717 54.4795C20.0934 52.2591 18.3768 50.7599 16.1313 50.6301C15.102 50.5714 14.0628 50.5864 13.0032 50.6158C12.7727 50.6222 12.5408 50.6293 12.3078 50.6365C11.4774 50.6619 10.6332 50.6878 9.79249 50.6836H9.79191L9.79133 50.6836C9.03279 50.6785 8.08855 50.6683 7.25645 50.354L7.25605 50.3538L7.25565 50.3537C5.38744 49.645 4.37934 47.379 4.62494 45.3733L4.62504 45.3725L4.62514 45.3717C4.63707 45.2763 4.64909 45.1824 4.66097 45.0897C4.71908 44.6358 4.77349 44.2108 4.7941 43.784C4.80499 43.5285 4.75172 43.3534 4.67046 43.2258C4.58819 43.0966 4.44571 42.9668 4.19697 42.8567C3.67124 42.6273 3.22634 42.2584 3.05076 41.7144C2.87392 41.1665 3.02333 40.6066 3.33 40.1136C3.446 39.9265 3.5877 39.7427 3.73227 39.5684C3.68246 39.5398 3.63366 39.5108 3.58665 39.4815C2.9836 39.1078 2.5525 38.5883 2.40724 37.9476C2.2621 37.3074 2.42656 36.6532 2.80249 36.0575L2.80271 36.0571L2.80293 36.0568C3.07863 35.6212 3.12298 35.272 3.05769 34.9981C2.99075 34.7172 2.78172 34.4035 2.3336 34.0994C1.72734 33.6934 1.0401 33.2011 0.527646 32.556L0.527285 32.5555C-0.433567 31.3437 -0.00126346 29.5074 1.1788 28.676C2.76728 27.5549 4.06651 26.1186 5.37866 24.6017C6.0789 23.7924 6.4238 22.7983 6.55589 21.6593C6.63593 20.9541 6.71283 20.2458 6.78993 19.5357C7.02943 17.3295 7.27083 15.106 7.61434 12.9052L7.61438 12.9049C8.06332 10.0373 9.66515 7.76506 11.558 5.79717L11.5583 5.7968C14.1481 3.10867 17.3428 1.54576 20.8826 0.74711M25.7432 0.12769C23.6376 0.284273 21.7396 0.553608 20.8828 0.747084L25.7432 0.12769ZM25.8374 1.39475C23.7613 1.54914 21.9328 1.81253 21.1625 1.98646L21.1624 1.98649C17.8162 2.74142 14.8596 4.20164 12.4737 6.67796C10.661 8.56254 9.26061 10.6047 8.86969 13.1011C8.5312 15.2698 8.29428 17.4519 8.05551 19.6509C7.97781 20.3665 7.89991 21.084 7.81825 21.8033L7.81817 21.8041L7.81808 21.8048C7.66667 23.1114 7.25574 24.374 6.33954 25.433C5.02746 26.9498 3.63948 28.4946 1.91098 29.7144L1.91058 29.7146C1.24322 30.1848 1.07712 31.2036 1.52265 31.7659C1.90194 32.2432 2.44195 32.6428 3.04235 33.0448L3.04389 33.0459L3.04543 33.0469C3.67245 33.4721 4.13231 34.0267 4.29363 34.7035C4.45663 35.3873 4.2885 36.0851 3.87679 36.7359C3.63356 37.1215 3.59336 37.433 3.64634 37.6666C3.69911 37.8994 3.86847 38.1616 4.25673 38.402L4.25789 38.4027L4.25905 38.4034C4.40591 38.4952 4.54494 38.5663 4.7121 38.6518C4.80717 38.7004 4.91133 38.7537 5.03121 38.8181L5.71233 39.1839L5.22142 39.7811C5.09531 39.9346 4.98415 40.0622 4.88437 40.1767C4.6925 40.3968 4.54275 40.5687 4.40985 40.7831L4.40952 40.7837L4.40918 40.7842C4.22283 41.0836 4.23606 41.2503 4.25988 41.3241C4.28486 41.4015 4.37714 41.5493 4.70616 41.6926L4.70769 41.6933L4.70922 41.694C5.13678 41.8829 5.49783 42.1597 5.74215 42.5433C5.98748 42.9285 6.08375 43.3724 6.0634 43.8405L6.06333 43.842L6.06326 43.8434C6.04007 44.326 5.97787 44.8105 5.91947 45.2654C5.90807 45.3542 5.89681 45.4419 5.88601 45.5283C5.69101 47.1229 6.53034 48.7196 7.70617 49.1657C8.2908 49.3863 9.00448 49.4077 9.79876 49.4131C10.6146 49.4171 11.4287 49.3922 12.2554 49.3669C12.4917 49.3596 12.7291 49.3524 12.9679 49.3457C14.034 49.3161 15.1179 49.2996 16.2037 49.3616L16.2041 49.3616C19.0495 49.5259 21.1746 51.4485 21.9871 54.109L21.9872 54.1096C22.4497 55.6297 22.5199 57.7864 22.4837 59.5334C22.4691 60.2423 22.4364 60.8986 22.4016 61.4393C27.3472 57.7537 32.7549 55.0449 38.8056 53.6682C38.5416 50.5924 38.4055 47.5135 38.7029 44.4187L38.7029 44.4178L38.703 44.4169C38.7537 43.9054 38.8373 43.1657 39.1994 42.586C40.5317 40.4165 41.9103 38.2854 43.2959 36.1598L43.2962 36.1594L43.2964 36.159C45.7722 32.3732 47.4501 28.2974 48.1017 23.8293C48.1704 23.3553 48.2244 22.8843 48.2797 22.4027C48.3065 22.1692 48.3336 21.9332 48.3628 21.6931V19.3403C48.3614 19.3356 48.3601 19.3307 48.3586 19.3256C48.3519 19.3015 48.3436 19.2722 48.3307 19.2226C48.3106 19.1452 48.2852 19.0375 48.2756 18.9166L48.2754 18.914L48.2752 18.9114C47.9192 13.9588 45.9109 9.75405 42.4181 6.25606L42.418 6.25599C39.5432 3.37621 35.8671 2.07322 31.8283 1.44894C30.1765 1.20021 27.916 1.24018 25.8374 1.39475Z" fill="#191716"/>
<path d="M24.4815 12.5413C24.4815 12.1319 24.4762 11.7172 24.4815 11.3078C24.4972 10.4575 24.6862 10.2633 25.5575 10.3211C26.497 10.3788 27.1478 10.0482 27.6517 9.21361C28.4127 7.94868 27.1845 6.27435 25.8041 6.2796C24.4815 6.28485 24.492 6.26385 24.4815 4.95168C24.4657 3.05166 24.3922 3.21437 26.4812 2.96768C28.5964 2.72099 30.4335 3.59752 31.8611 5.20886C32.1603 5.55003 32.3702 5.66025 32.8269 5.4818C33.315 5.28759 33.8714 5.22461 34.4015 5.17737C35.0418 5.12489 35.4197 5.45031 35.4302 6.11689C35.446 6.75723 35.4197 7.40281 35.4565 8.04315C35.5142 9.0719 36.0391 9.41306 37.0258 9.11913C37.6767 8.92493 38.2225 9.15588 38.5584 9.69124C38.8734 10.1846 38.8734 10.7567 38.5165 11.2711C38.1228 11.838 37.5612 11.9429 36.9523 11.754C35.8134 11.3971 35.4775 11.6228 35.446 12.809C35.3987 14.7615 35.3987 14.7562 33.4672 14.7615C32.9528 14.7615 32.4385 14.7667 31.9241 14.8192C31.1368 14.8979 30.8901 15.3441 31.1945 16.0946C31.4885 16.8137 31.3363 17.58 30.8219 17.9684C30.234 18.4093 29.6409 18.3831 29.0426 17.9789C28.3917 17.538 28.4547 16.8924 28.5702 16.2521C28.7382 15.2706 28.4547 14.8559 27.4522 14.7877C26.8381 14.7457 26.2188 14.7772 25.5994 14.7667C24.6389 14.7457 24.4867 14.583 24.4815 13.6225C24.4815 13.2603 24.4815 12.9034 24.4815 12.5413Z" fill="#191716"/>
<path d="M35.4303 17.5013C35.4303 17.6798 35.4303 17.8635 35.4303 18.0419C35.4408 19.1547 35.2781 19.6376 33.9921 19.5168C33.1733 19.4381 32.4018 20.0679 32.2076 20.787C31.9556 21.716 32.2338 22.6608 32.9581 23.1017C33.378 23.3589 33.7979 23.679 34.3753 23.4743C34.6902 23.3589 35.0839 23.4219 35.2676 23.7315C35.4828 24.1042 35.467 24.5608 35.2413 24.9125C35.0471 25.2169 34.6062 25.2536 34.3333 25.0909C33.6667 24.6973 33.1996 25.0909 32.638 25.3324C29.8982 26.4871 27.3893 26.02 25.0851 24.1777C24.639 23.8208 24.4238 23.4324 24.4973 22.8655C24.5235 22.6608 24.5025 22.4561 24.5025 22.2514C24.5025 20.724 24.1456 20.4511 22.7075 20.9025C22.0986 21.0914 21.6367 20.7975 21.3061 20.3934C20.9019 19.9 20.9177 19.2387 21.2536 18.7348C21.558 18.2729 22.0619 17.9685 22.7022 18.1574C23.8937 18.5091 24.4815 18.0629 24.4973 16.7928C24.513 15.3914 24.6127 15.2969 26.0666 15.2969C26.2976 15.2969 26.5285 15.2916 26.7594 15.2969C27.657 15.3284 27.9614 15.6223 27.8879 16.5251C27.8144 17.4384 28.1451 18.1417 28.8957 18.5931C30.2708 19.4224 31.9714 18.4094 31.9714 16.798C31.9714 15.4596 32.1288 15.3021 33.4463 15.2969C35.4145 15.2969 35.4145 15.2969 35.4303 17.5013Z" fill="#191716"/>
<path d="M23.7992 12.1739C23.7992 12.662 23.7992 13.1501 23.7992 13.6382C23.7992 13.7905 23.8044 13.9532 23.7729 14.1001C23.6207 14.772 22.7862 14.9872 21.2483 14.751C20.6604 14.6617 20.3823 14.2996 20.4925 13.717C20.7549 12.3576 19.6422 11.2501 18.498 11.2186C17.2173 11.1871 16.3618 12.1949 16.3933 13.696C16.409 14.4885 16.1623 14.7405 15.3488 14.7562C15.0916 14.7615 14.8344 14.7562 14.5772 14.7562C13.0761 14.7562 12.9606 14.6565 12.6719 13.1711C11.8741 9.04039 15.8107 5.36631 19.8941 6.50528C20.7549 6.74672 21.0961 6.54727 21.5055 5.84919C21.7994 5.34007 22.0671 4.71023 22.8859 4.68398C23.5735 4.66299 23.7992 4.93592 23.7939 5.55527C23.7939 5.8072 23.8044 6.07489 23.8726 6.31633C24.0616 6.96191 24.5812 7.24534 25.2373 7.04589C25.9511 6.82545 26.5757 6.89368 27.0061 7.55501C27.3683 8.10088 27.3473 8.69398 26.9326 9.2031C26.4445 9.8067 25.8147 9.82245 25.1166 9.54952C24.366 9.25559 23.8464 9.59675 23.7992 10.3998C23.7729 10.9929 23.7992 11.586 23.7992 12.1739Z" fill="#191716"/>
<path d="M36.0548 17.6431C36.0548 15.087 35.9026 15.5593 38.1857 15.4964C38.7211 15.4806 38.9048 15.7116 38.8786 16.2154C38.8156 17.4279 39.2407 18.3149 40.4112 18.887C40.7838 19.0655 40.9938 18.9185 41.23 18.8713C42.4267 18.6298 43.0618 17.7743 43.0198 16.5566C42.983 15.5646 43.046 15.5016 44.0223 15.5016C45.6704 15.5069 45.9748 15.953 45.0773 17.3701C44.5262 18.2414 44.2637 19.0917 44.1745 20.1152C43.9645 22.4561 42.1223 24.3561 39.7918 24.7603C39.0885 24.881 39.015 25.1277 39.246 25.726C39.6501 26.7758 39.9755 27.857 40.3639 28.912C40.5371 29.3844 40.3272 29.7203 39.9965 29.9355C39.6449 30.1664 39.2355 30.0825 38.973 29.715C38.1805 28.6023 37.2987 27.5736 36.291 26.6446C36.0495 26.4189 36.0285 26.0987 36.0285 25.7838C36.0285 25.1172 36.0338 24.4454 36.0285 23.7788C36.0233 22.6136 35.6716 22.3459 34.5536 22.6976C33.95 22.8918 33.4304 22.8183 33.021 22.3354C32.6116 21.863 32.5644 21.3067 32.8583 20.7608C33.2257 20.0785 33.8451 20.005 34.5222 20.1362C35.5719 20.3356 36.018 19.9945 36.0548 18.9395C36.0653 18.5196 36.0548 18.0787 36.0548 17.6431Z" fill="#191716"/>
<path d="M21.1538 23.2485C18.1568 23.238 15.8001 20.9706 15.6322 17.9631C15.6059 17.5117 15.5167 17.1863 15.0968 16.9658C14.7189 16.7664 14.5405 16.4252 14.6507 16.0001C14.7767 15.533 15.1388 15.3702 15.5902 15.365C15.9996 15.3597 16.4247 15.4122 16.7764 15.1393C17.2488 14.7666 17.2435 14.2995 17.0966 13.7537C16.8814 12.9454 17.1701 12.2998 17.8261 12.0006C18.456 11.7119 19.0438 11.8274 19.5162 12.3313C19.9624 12.8089 19.9991 13.3705 19.7524 13.9741C19.3902 14.8769 19.7157 15.344 20.6972 15.3597C21.3637 15.3702 22.0303 15.3545 22.7022 15.365C23.5734 15.3807 23.8516 15.6799 23.8254 16.5407C23.8044 17.3385 23.5262 17.5747 22.6444 17.538C21.495 17.4907 20.6604 18.0996 20.44 19.144C20.23 20.136 20.7811 21.1123 21.7836 21.443C22.3033 21.6162 22.7756 21.7736 22.6969 22.456C22.6129 23.1593 22.0618 23.1593 21.5475 23.2223C21.39 23.238 21.2325 23.2433 21.1538 23.2485Z" fill="#191716"/>
<path d="M43.954 14.7615C43.7231 14.7615 43.4922 14.7562 43.2612 14.7615C42.243 14.7825 41.9123 15.2496 42.2745 16.1839C42.5474 16.8924 42.4319 17.5118 41.8388 17.9789C41.293 18.4041 40.6736 18.3988 40.1225 17.9999C39.5451 17.58 39.3772 17.0027 39.6029 16.2993C39.8863 15.4071 39.4454 14.8035 38.4902 14.7667C37.9758 14.7457 37.4614 14.7825 36.9523 14.7562C36.2017 14.7195 36.039 14.4046 36.0758 13.2971C36.0968 12.6357 36.4327 12.3996 37.0625 12.4206C38.5899 12.4678 39.3457 11.7855 39.4454 10.2581C39.4874 9.60201 39.8128 9.35532 40.4322 9.37107C42.7678 9.4288 44.7676 10.8932 45.4972 13.0871C45.9223 14.3731 45.6389 14.7667 44.269 14.772C44.1587 14.7615 44.059 14.7615 43.954 14.7615Z" fill="#191716"/>
<path d="M36.0863 7.07196C36.0863 6.81477 36.0286 6.54709 36.0968 6.3109C36.2333 5.82802 36.5535 5.61282 37.0783 5.78603C37.8761 6.04846 38.4955 6.54709 39.0413 7.16644C39.3458 7.5076 39.4665 7.8855 39.2355 8.2844C38.9941 8.69905 38.6004 8.75154 38.1648 8.60982C37.7764 8.48386 37.388 8.43661 36.9628 8.4891C36.2858 8.57308 36.0653 8.18468 36.0863 7.07196Z" fill="#191716"/>
</svg>
