<svg width="396" height="142" viewBox="0 0 396 142" fill="none" xmlns="http://www.w3.org/2000/svg">
<path d="M120.762 58.1739V58.1047C120.762 51.1336 126.198 45.9399 133.169 45.9399C138.305 45.9399 141.768 48.4444 143.741 52.0107L137.301 55.7733C136.435 54.1113 135.2 52.9341 133.065 52.9341C130.434 52.9341 128.703 55.2308 128.703 58.0354V58.1047C128.703 61.1401 130.503 63.2752 133.065 63.2752C135.27 63.2752 136.505 62.0749 137.463 60.3437L143.903 63.9793C141.941 67.4417 138.663 70.2809 132.869 70.2809C126.394 70.2809 120.762 65.4104 120.762 58.1739Z" fill="white"/>
<path d="M144.307 60.7359V60.6667C144.307 55.5307 148.577 51.1334 154.579 51.1334C160.546 51.1334 164.781 55.473 164.781 60.5974V60.6667C164.781 65.8026 160.511 70.1999 154.509 70.1999C148.531 70.2115 144.307 65.8719 144.307 60.7359ZM157.51 60.7359V60.6667C157.51 58.8662 156.171 57.4351 154.509 57.4351C152.813 57.4351 151.578 58.8662 151.578 60.5974V60.6667C151.578 62.4671 152.917 63.8983 154.579 63.8983C156.275 63.9098 157.51 62.4787 157.51 60.7359Z" fill="white"/>
<path d="M166.478 51.572H174.049V54.1111C175.215 52.6107 177.05 51.145 179.612 51.145C183.444 51.145 185.845 53.6841 185.845 57.7813V69.7845H178.273V60.2166C178.273 58.6469 177.339 57.7467 176.208 57.7467C175.076 57.7467 174.038 58.6469 174.038 60.2166V69.7845H166.467V51.572H166.478Z" fill="white"/>
<path d="M189.376 57.4006H187.241V51.5606H189.376C189.411 49.6216 189.873 48.0635 191.015 46.9209C192.25 45.686 193.854 45.1897 196.347 45.1897C198.586 45.1897 199.948 45.3859 200.987 45.686V50.418C200.248 50.2564 199.521 50.1525 198.552 50.1525C197.386 50.1525 196.786 50.6142 196.786 51.6183V51.7568H200.987V57.389H196.947V69.7615H189.376V57.4006V57.4006Z" fill="white"/>
<path d="M201.287 60.7359V60.6667C201.287 55.5307 205.557 51.1334 211.559 51.1334C217.526 51.1334 221.762 55.473 221.762 60.5974V60.6667C221.762 65.8026 217.491 70.1999 211.49 70.1999C205.523 70.2115 201.287 65.8719 201.287 60.7359ZM214.49 60.7359V60.6667C214.49 58.8662 213.152 57.4351 211.49 57.4351C209.793 57.4351 208.558 58.8662 208.558 60.5974V60.6667C208.558 62.4671 209.897 63.8983 211.559 63.8983C213.256 63.9098 214.49 62.4787 214.49 60.7359Z" fill="white"/>
<path d="M223.458 51.572H231.03V55.2422C232.068 52.7724 233.73 51.1796 236.731 51.3066V59.3395H235.935C232.738 59.3395 231.03 61.1053 231.03 65.1448V69.7845H223.458V51.572Z" fill="white"/>
<path d="M238.024 51.572H245.595V54.0073C246.761 52.5069 248.596 51.145 251.1 51.145C253.57 51.145 255.463 52.2068 256.467 54.1458C258.002 52.4145 259.837 51.145 262.63 51.145C266.531 51.145 268.932 53.6841 268.932 57.7813V69.7845H261.361V60.1473C261.361 58.6123 260.46 57.7467 259.364 57.7467C258.268 57.7467 257.263 58.6123 257.263 60.1473V69.7845H249.692V60.1473C249.692 58.6123 248.792 57.7467 247.696 57.7467C246.599 57.7467 245.595 58.6123 245.595 60.1473V69.7845H238.024V51.572Z" fill="white"/>
<path d="M270.998 45.4319H278.834V50.2678H270.998V45.4319ZM271.136 51.572H278.708V69.7729H271.136V51.572Z" fill="white"/>
<path d="M282.435 63.6675V57.4004H280.3V51.5605H282.435V46.99H290.007V51.5605H294.208V57.4004H290.007V62.0055C290.007 63.3674 290.641 63.8752 291.842 63.8752C292.546 63.8752 293.342 63.679 294.138 63.3097V69.1497C292.938 69.7845 291.138 70.1884 289.303 70.1884C284.836 70.1769 282.435 68.1109 282.435 63.6675Z" fill="white"/>
<path d="M308.785 51.572H316.483L310.181 68.5149C308.415 73.2816 306.476 75.2206 302.275 75.2206C299.644 75.2206 297.278 74.4588 295.235 73.3162L297.439 68.1456C298.801 68.9074 300.071 69.3459 300.775 69.3459C301.213 69.3459 301.606 69.2767 302.01 69.0805L294.877 51.572H302.714L305.876 61.1746L308.785 51.572Z" fill="white"/>
<path d="M314.521 62.1095H322.253V69.7731H314.521V62.1095Z" fill="white"/>
<path d="M324.423 46.4362H334.926C341.124 46.4362 345.36 49.2061 345.36 54.7345V54.8037C345.36 60.436 341.055 63.4368 334.753 63.4368H332.214V69.7731H324.412V46.4362H324.423ZM334.326 57.8738C336.323 57.8738 337.661 56.9735 337.661 55.3116V55.2423C337.661 53.5457 336.426 52.6801 334.36 52.6801H332.225V57.8853H334.326V57.8738Z" fill="white"/>
<path d="M347.021 46.4362H358.424C362.556 46.4362 365.188 47.4749 366.827 49.1022C368.223 50.4988 368.962 52.2415 368.962 54.6422V54.7114C368.962 58.1161 367.196 60.4821 364.357 61.844L369.793 69.7846H360.894L356.497 63.1136H354.835V69.7846H347.033V46.4362H347.021ZM358.194 57.5391C360.063 57.5391 361.194 56.7081 361.194 55.2769V55.2077C361.194 53.7073 360.029 52.9686 358.228 52.9686H354.823V57.5391H358.194Z" fill="white"/>
<path d="M370.335 58.1739V58.1047C370.335 51.3413 375.898 45.9399 383.1 45.9399C390.302 45.9399 395.807 51.2721 395.807 58.0469V58.1162C395.807 64.8795 390.244 70.2809 383.042 70.2809C375.829 70.2809 370.335 64.9372 370.335 58.1739ZM387.936 58.1739V58.1047C387.936 55.3347 386.032 52.8417 383.031 52.8417C380.065 52.8417 378.195 55.3116 378.195 58.0469V58.1162C378.195 60.8861 380.099 63.3791 383.1 63.3791C386.066 63.3676 387.936 60.9092 387.936 58.1739Z" fill="white"/>
<path d="M125.69 79.7102H126.879L131.98 90.9863H130.618L129.303 88.0316H123.209L121.882 90.9863H120.589L125.69 79.7102ZM128.806 86.8775L126.267 81.176L123.705 86.8775H128.806Z" fill="white"/>
<path d="M134.185 79.791H135.454V89.8205H141.756V90.9862H134.185V79.791Z" fill="white"/>
<path d="M141.629 79.7909H143.003L146.2 89.1164L149.27 79.7563H150.308L153.378 89.1164L156.575 79.7909H157.903L153.898 91.067H152.824L149.754 81.9838L146.661 91.067H145.599L141.629 79.7909Z" fill="white"/>
<path d="M162.912 79.7102H164.1L169.202 90.9863H167.84L166.524 88.0316H160.43L159.103 90.9863H157.81L162.912 79.7102ZM166.028 86.8775L163.489 81.176L160.927 86.8775H166.028Z" fill="white"/>
<path d="M173.149 86.5659L168.498 79.8025H170.033L173.807 85.4002L177.615 79.8025H179.093L174.441 86.5543V90.9978H173.16V86.5659H173.149Z" fill="white"/>
<path d="M179.808 89.359L180.593 88.4356C181.759 89.4974 182.878 90.0168 184.436 90.0168C185.937 90.0168 186.929 89.2205 186.929 88.1125V88.0778C186.929 87.0391 186.364 86.4505 184.021 85.9542C181.447 85.3887 180.258 84.5577 180.258 82.7226V82.688C180.258 80.9221 181.805 79.6295 183.94 79.6295C185.567 79.6295 186.745 80.0911 187.876 81.0029L187.137 81.9839C186.098 81.1414 185.06 80.7721 183.905 80.7721C182.451 80.7721 181.516 81.5685 181.516 82.5841V82.6187C181.516 83.6805 182.093 84.2692 184.552 84.8001C187.045 85.3425 188.199 86.2543 188.199 87.974V88.0086C188.199 89.9245 186.595 91.1825 184.379 91.1825C182.601 91.1594 181.147 90.5593 179.808 89.359Z" fill="white"/>
<path d="M195.585 79.791H196.855V89.8205H203.157V90.9862H195.585V79.791Z" fill="white"/>
<path d="M205.488 79.791H213.59V80.9451H206.758V84.7654H212.875V85.9195H206.758V89.8436H213.671V90.9978H205.5V79.791H205.488Z" fill="white"/>
<path d="M220.353 79.7102H221.542L226.644 90.9863H225.282L223.966 88.0316H217.872L216.545 90.9863H215.252L220.353 79.7102ZM223.47 86.8775L220.93 81.176L218.368 86.8775H223.47Z" fill="white"/>
<path d="M228.848 79.791H233.661C235.034 79.791 236.142 80.2065 236.846 80.9105C237.389 81.453 237.712 82.2378 237.712 83.1149V83.1496C237.712 85.0077 236.431 86.0926 234.677 86.4158L238.116 90.9978H236.569L233.326 86.6466H230.129V90.9978H228.86V79.791H228.848ZM233.546 85.504C235.231 85.504 236.431 84.6384 236.431 83.1957V83.1611C236.431 81.7877 235.369 80.9567 233.569 80.9567H230.118V85.504H233.546V85.504Z" fill="white"/>
<path d="M240.413 79.791H241.602L248.653 88.7703V79.791H249.888V90.9862H248.884L241.648 81.7992V90.9862H240.413V79.791V79.791Z" fill="white"/>
<path d="M253.166 79.791H254.436V90.9862H253.166V79.791Z" fill="white"/>
<path d="M257.714 79.791H258.902L265.954 88.7703V79.791H267.189V90.9862H266.185L258.948 81.7992V90.9862H257.714V79.791V79.791Z" fill="white"/>
<path d="M269.855 85.4233V85.3886C269.855 82.3186 272.106 79.5948 275.476 79.5948C277.369 79.5948 278.534 80.1373 279.654 81.0837L278.834 82.0416C277.969 81.2914 277.011 80.7605 275.43 80.7605C272.948 80.7605 271.171 82.861 271.171 85.354V85.3886C271.171 88.0662 272.879 90.0398 275.603 90.0398C276.884 90.0398 278.073 89.5436 278.834 88.9203V86.1388H275.43V85.0078H280.058V89.4743C279.019 90.3976 277.449 91.1825 275.557 91.1825C272.036 91.1825 269.855 88.6318 269.855 85.4233Z" fill="white"/>
<path fill-rule="evenodd" clip-rule="evenodd" d="M56.6075 0.280781C61.2316 -0.0630897 66.4566 -0.171454 70.407 0.423812L70.4096 0.424203L70.4121 0.424604C79.6041 1.84507 88.347 4.86611 95.2514 11.7826C103.381 19.9237 108.105 29.7876 108.94 41.3763C108.942 41.4004 108.95 41.4526 108.98 41.5661C108.995 41.6241 109.067 41.882 109.102 42.0244L109.14 42.1851V47.8715L109.13 47.956C109.067 48.4688 109.007 48.9936 108.946 49.5243C108.821 50.6089 108.694 51.7181 108.537 52.7996L108.537 52.8008C107.038 63.0806 103.18 72.4226 97.544 81.0403C94.4983 85.7127 91.4836 90.3731 88.5745 95.1104L88.5712 95.1158L88.5679 95.1211C88.1671 95.7608 88.0051 96.7383 87.8858 97.9417C87.2175 104.898 87.5775 111.87 88.2213 118.987L88.333 120.221L87.1209 120.479C72.7768 123.532 60.0765 130.094 48.4758 139.22L45.8806 141.261L46.2227 137.977C46.2498 137.717 46.5686 134.632 46.6468 130.852C46.7261 127.021 46.5513 122.675 45.6755 119.796C44.184 114.914 40.4093 111.617 35.4717 111.332C33.2082 111.203 30.923 111.236 28.593 111.301C28.0863 111.315 27.5763 111.33 27.064 111.346C25.238 111.402 23.3818 111.459 21.533 111.45H21.5317L21.5305 111.45C19.8625 111.438 17.7862 111.416 15.9564 110.725L15.9555 110.724L15.9547 110.724C11.8466 109.166 9.62986 104.183 10.1699 99.7726L10.1701 99.7709L10.1704 99.7692C10.1966 99.5594 10.223 99.3528 10.2491 99.149C10.3769 98.1509 10.4966 97.2165 10.5419 96.2779C10.5658 95.7161 10.4487 95.331 10.27 95.0505C10.0891 94.7664 9.7758 94.481 9.22884 94.2388C8.07279 93.7344 7.0945 92.9231 6.7084 91.727C6.31955 90.5223 6.6481 89.2911 7.32243 88.2071C7.57752 87.7955 7.88909 87.3915 8.20699 87.008C8.09747 86.9453 7.99016 86.8815 7.88678 86.817C6.56072 85.9952 5.61277 84.8529 5.29334 83.444C4.97419 82.0364 5.33584 80.5979 6.16247 79.2879L6.16296 79.2871L6.16345 79.2863C6.76969 78.3284 6.86721 77.5606 6.72365 76.9583C6.57645 76.3407 6.1168 75.6509 5.13142 74.9821C3.7983 74.0893 2.28711 73.0068 1.16026 71.5883L1.15946 71.5873C-0.953382 68.9226 -0.00277826 64.8847 2.5921 63.0565C6.08506 60.5913 8.94197 57.4329 11.8273 54.0975C13.3671 52.3177 14.1255 50.1318 14.4159 47.6273C14.5919 46.0766 14.761 44.5191 14.9306 42.9575C15.4572 38.1064 15.988 33.217 16.7434 28.3775L16.7435 28.3769C17.7307 22.0712 21.253 17.0748 25.4151 12.7476L25.4159 12.7468C31.1107 6.83574 38.1355 3.39902 45.9194 1.64284M56.6075 0.280781C51.9775 0.625096 47.8039 1.21735 45.9197 1.64278ZM56.8147 3.06695C52.2493 3.40646 48.2286 3.98563 46.5348 4.36809L46.5346 4.36815C39.1765 6.02819 32.6751 9.23911 27.4287 14.6844C23.4428 18.8284 20.3634 23.3189 19.5038 28.8084C18.7595 33.5773 18.2385 38.3754 17.7135 43.2109C17.5426 44.7845 17.3713 46.3621 17.1918 47.944L17.1916 47.9456L17.1914 47.9472C16.8585 50.8204 15.9549 53.5968 13.9402 55.9254C11.055 59.2607 8.00295 62.6576 4.20212 65.3398L4.20124 65.3404C2.73375 66.3743 2.36851 68.6144 3.3482 69.8509C4.18223 70.9006 5.36967 71.7793 6.68992 72.6633L6.69331 72.6655L6.69668 72.6678C8.07547 73.6027 9.08666 74.8223 9.44138 76.3105C9.79981 77.8143 9.43011 79.3487 8.52479 80.7796C7.98994 81.6275 7.90155 82.3124 8.01806 82.8263C8.13409 83.338 8.50649 83.9147 9.36025 84.4432L9.3628 84.4448L9.36534 84.4464C9.68829 84.6482 9.994 84.8046 10.3616 84.9926C10.5706 85.0995 10.7997 85.2167 11.0633 85.3582L12.561 86.1626L11.4815 87.4759C11.2042 87.8133 10.9598 88.0938 10.7404 88.3456C10.3185 88.8298 9.98919 89.2077 9.69696 89.6792L9.69621 89.6804L9.69547 89.6816C9.28571 90.3399 9.3148 90.7065 9.36719 90.8687C9.4221 91.0389 9.62502 91.364 10.3485 91.6791L10.3519 91.6806L10.3552 91.6821C11.2954 92.0975 12.0893 92.7061 12.6266 93.5497C13.1661 94.3968 13.3777 95.3728 13.333 96.4022L13.3328 96.4054L13.3327 96.4086C13.2817 97.4697 13.1449 98.5351 13.0165 99.5354C12.9914 99.7307 12.9667 99.9236 12.9429 100.113C12.5141 103.62 14.3598 107.131 16.9453 108.112C18.2309 108.597 19.8002 108.644 21.5468 108.656C23.3408 108.665 25.1308 108.61 26.9487 108.554C27.4684 108.538 27.9904 108.522 28.5154 108.508C30.8597 108.443 33.2431 108.406 35.6308 108.543L35.6318 108.543C41.8885 108.904 46.5615 113.132 48.348 118.982L48.3484 118.983C49.3654 122.326 49.5196 127.068 49.4401 130.91C49.4079 132.468 49.336 133.912 49.2595 135.101C60.1347 126.996 72.0258 121.04 85.3307 118.013C84.7504 111.249 84.4509 104.479 85.1049 97.6736L85.1051 97.6716L85.1052 97.6696C85.2166 96.5448 85.4006 94.9183 86.1966 93.6436C89.1262 88.873 92.1579 84.1869 95.2046 79.5129L95.2052 79.512L95.2058 79.5112C100.65 71.1863 104.339 62.2239 105.772 52.3989C105.923 51.3565 106.042 50.3209 106.164 49.262C106.223 48.7485 106.282 48.2295 106.346 47.7016V42.528C106.343 42.5175 106.34 42.5068 106.337 42.4957C106.322 42.4426 106.304 42.3783 106.276 42.2691C106.232 42.0989 106.176 41.8621 106.155 41.5962L106.154 41.5906L106.154 41.5849C105.371 30.6945 100.955 21.4485 93.2743 13.7566L93.2742 13.7565C86.9528 7.42405 78.8692 4.55886 69.9882 3.18612C66.3561 2.63919 61.3853 2.72707 56.8147 3.06695Z" fill="white"/>
<path d="M53.833 27.5773C53.833 26.6771 53.8215 25.7653 53.833 24.8651C53.8677 22.9954 54.2832 22.5683 56.199 22.6953C58.265 22.8223 59.6961 22.0951 60.8041 20.26C62.4776 17.4785 59.7769 13.7968 56.7415 13.8084C53.833 13.8199 53.8561 13.7737 53.833 10.8884C53.7984 6.71034 53.6368 7.06812 58.2303 6.52567C62.8816 5.98322 66.9211 7.91065 70.0604 11.4539C70.7182 12.2041 71.1799 12.4465 72.184 12.054C73.2574 11.627 74.4808 11.4885 75.6465 11.3846C77.0545 11.2692 77.8855 11.9848 77.9086 13.4506C77.9432 14.8586 77.8855 16.2782 77.9663 17.6863C78.0932 19.9484 79.2474 20.6986 81.4172 20.0523C82.8483 19.6253 84.0487 20.1331 84.7873 21.3103C85.4798 22.3952 85.4798 23.6532 84.695 24.7843C83.8294 26.0308 82.5944 26.2616 81.2556 25.8461C78.7511 25.0613 78.0125 25.5576 77.9432 28.166C77.8393 32.4594 77.8393 32.4478 73.5921 32.4594C72.461 32.4594 71.3299 32.4709 70.1989 32.5863C68.4677 32.7595 67.9252 33.7405 68.5946 35.3909C69.2409 36.9721 68.9062 38.6572 67.7752 39.5112C66.4825 40.4807 65.1783 40.423 63.8626 39.5343C62.4314 38.5648 62.5699 37.1452 62.8239 35.7372C63.1932 33.5789 62.5699 32.6671 60.3655 32.5171C59.0152 32.4248 57.6533 32.494 56.2914 32.4709C54.1793 32.4248 53.8446 32.067 53.833 29.9549C53.833 29.1585 53.833 28.3737 53.833 27.5773Z" fill="white"/>
<path d="M77.9086 38.4841C77.9086 38.8765 77.9086 39.2805 77.9086 39.6729C77.9317 42.1197 77.5739 43.1815 74.7462 42.916C72.9458 42.7429 71.2492 44.1279 70.8221 45.7091C70.2681 47.7519 70.8798 49.8294 72.4726 50.7989C73.3959 51.3644 74.3192 52.0684 75.5888 51.6183C76.2813 51.3644 77.1469 51.5029 77.5508 52.1839C78.024 53.0033 77.9894 54.0074 77.4931 54.7807C77.0661 55.4501 76.0966 55.5309 75.4964 55.1731C74.0307 54.3075 73.0035 55.1731 71.7685 55.704C65.7439 58.2431 60.2271 57.216 55.1603 53.1649C54.1793 52.3801 53.7061 51.526 53.8677 50.2795C53.9254 49.8294 53.8792 49.3793 53.8792 48.9292C53.8792 45.5706 53.0944 44.9704 49.932 45.963C48.5932 46.3785 47.5776 45.7322 46.8505 44.8435C45.9618 43.7586 45.9964 42.3043 46.7351 41.1964C47.4045 40.1807 48.5124 39.5113 49.9205 39.9268C52.5404 40.7001 53.8331 39.7191 53.8677 36.926C53.9023 33.8444 54.1216 33.6367 57.3186 33.6367C57.8264 33.6367 58.3342 33.6251 58.8421 33.6367C60.8157 33.7059 61.4851 34.3523 61.3235 36.3374C61.1619 38.3456 61.889 39.8922 63.5395 40.8847C66.5633 42.7083 70.3028 40.4808 70.3028 36.9376C70.3028 33.9945 70.649 33.6482 73.5459 33.6367C77.874 33.6367 77.874 33.6367 77.9086 38.4841Z" fill="white"/>
<path d="M52.3327 26.7693C52.3327 27.8427 52.3327 28.9161 52.3327 29.9894C52.3327 30.3241 52.3443 30.6819 52.275 31.0051C51.9403 32.4824 50.1052 32.9556 46.7235 32.4362C45.4309 32.24 44.8192 31.4437 45.0616 30.1625C45.6386 27.1733 43.1919 24.738 40.6758 24.6688C37.8597 24.5995 35.9784 26.8155 36.0477 30.1164C36.0823 31.8591 35.5398 32.4131 33.7509 32.4478C33.1854 32.4593 32.6198 32.4478 32.0543 32.4478C28.7534 32.4478 28.4995 32.2285 27.8648 28.9622C26.1104 19.8791 34.7666 11.8 43.7458 14.3045C45.6386 14.8355 46.3888 14.3969 47.2891 12.8619C47.9354 11.7423 48.524 10.3574 50.3245 10.2996C51.8364 10.2535 52.3327 10.8536 52.3212 12.2155C52.3212 12.7695 52.3442 13.3581 52.4943 13.8891C52.9098 15.3087 54.0524 15.9319 55.4951 15.4933C57.0647 15.0086 58.4382 15.1586 59.3846 16.6128C60.1809 17.8132 60.1348 19.1173 59.223 20.2369C58.1496 21.5641 56.7646 21.5988 55.2296 20.9986C53.5792 20.3523 52.4366 21.1025 52.3327 22.8683C52.275 24.1725 52.3327 25.4767 52.3327 26.7693Z" fill="white"/>
<path d="M79.2819 38.7956C79.2819 33.1749 78.9472 34.2136 83.9678 34.0751C85.145 34.0405 85.549 34.5483 85.4913 35.6563C85.3528 38.3224 86.2876 40.2729 88.8614 41.5309C89.6808 41.9233 90.1425 41.6002 90.6619 41.4963C93.2933 40.9654 94.6898 39.0841 94.5975 36.4065C94.5167 34.2252 94.6552 34.0867 96.8019 34.0867C100.426 34.0982 101.095 35.0792 99.1218 38.1954C97.9099 40.1113 97.3328 41.981 97.1366 44.2316C96.675 49.3791 92.6239 53.5571 87.4995 54.4458C85.9529 54.7113 85.7913 55.2537 86.2992 56.5695C87.1879 58.8778 87.9034 61.2553 88.7575 63.5752C89.1384 64.6139 88.6767 65.3525 87.9496 65.8257C87.1763 66.3336 86.2761 66.1489 85.699 65.341C83.9562 62.8942 82.0173 60.6321 79.8013 58.5892C79.2704 58.093 79.2242 57.3889 79.2242 56.6964C79.2242 55.2307 79.2358 53.7534 79.2242 52.2876C79.2127 49.7254 78.4394 49.1368 75.9811 49.91C74.6538 50.3371 73.5112 50.1755 72.611 49.1137C71.7107 48.0749 71.6069 46.8515 72.2532 45.6512C73.0611 44.1508 74.423 43.9893 75.9118 44.2778C78.2201 44.7164 79.2012 43.9662 79.2819 41.6463C79.305 40.723 79.2819 39.7535 79.2819 38.7956Z" fill="white"/>
<path d="M46.5156 51.1219C39.9254 51.0988 34.7433 46.1129 34.374 39.4996C34.3163 38.5071 34.1201 37.7915 33.1968 37.3068C32.3658 36.8682 31.9734 36.118 32.2157 35.1831C32.4927 34.1559 33.2891 33.7981 34.2817 33.7866C35.1819 33.7751 36.1168 33.8905 36.89 33.2903C37.9288 32.4709 37.9172 31.4437 37.5941 30.2434C37.1209 28.466 37.7556 27.0464 39.1983 26.3885C40.5833 25.7537 41.876 26.0076 42.9147 27.1156C43.8957 28.1659 43.9765 29.4008 43.4341 30.7281C42.6377 32.7132 43.3533 33.7404 45.5115 33.7751C46.9773 33.7981 48.4431 33.7635 49.9204 33.7866C51.8363 33.8212 52.448 34.4791 52.3903 36.3719C52.3441 38.1262 51.7324 38.6456 49.7934 38.5648C47.2658 38.4609 45.4307 39.7997 44.946 42.0965C44.4843 44.2778 45.6962 46.4245 47.9006 47.1516C49.0432 47.5325 50.082 47.8788 49.9088 49.3792C49.7242 50.9257 48.5123 50.9257 47.3812 51.0642C47.035 51.0988 46.6888 51.1104 46.5156 51.1219Z" fill="white"/>
<path d="M96.6519 32.4594C96.144 32.4594 95.6362 32.4479 95.1284 32.4594C92.8893 32.5056 92.1622 33.5328 92.9586 35.5872C93.5587 37.1453 93.3048 38.5072 92.0006 39.5344C90.8003 40.4692 89.4384 40.4577 88.2266 39.5805C86.957 38.6572 86.5877 37.3876 87.084 35.8411C87.7072 33.879 86.7377 32.5518 84.6372 32.471C83.5061 32.4248 82.375 32.5056 81.2555 32.4479C79.6051 32.3671 79.2473 31.6746 79.3281 29.2393C79.3742 27.7851 80.1129 27.2657 81.4979 27.3119C84.8564 27.4158 86.5184 25.9154 86.7377 22.5568C86.83 21.1141 87.5456 20.5717 88.9075 20.6063C94.0435 20.7333 98.4408 23.9533 100.045 28.7777C100.98 31.6053 100.357 32.471 97.3443 32.4825C97.102 32.4594 96.8827 32.4594 96.6519 32.4594Z" fill="white"/>
<path d="M79.3512 15.551C79.3512 14.9854 79.2243 14.3968 79.3743 13.8774C79.6744 12.8156 80.3784 12.3424 81.5326 12.7233C83.2869 13.3004 84.6488 14.3968 85.8491 15.7587C86.5185 16.5089 86.784 17.3399 86.2761 18.2171C85.7452 19.1288 84.8796 19.2442 83.9217 18.9326C83.0676 18.6556 82.2135 18.5517 81.2787 18.6672C79.7898 18.8518 79.3051 17.9978 79.3512 15.551Z" fill="white"/>
</svg>
